<svg width="44" height="46" viewBox="0 0 44 46" fill="none" xmlns="http://www.w3.org/2000/svg">
<g clip-path="url(#clip0_26886_358)">
<path d="M43.3206 4.49218C42.7831 3.81663 41.9781 3.4447 41.0536 3.4447C40.5511 3.4447 40.0187 3.55338 39.4715 3.76833L2.22633 18.3809C0.249764 19.1561 -0.0164409 20.3195 0.000679409 20.944C0.0177997 21.5685 0.347786 22.7147 2.36396 23.374C2.37605 23.3778 2.38813 23.3816 2.40022 23.385L10.1259 25.6573L14.3039 37.9365C14.8736 39.6105 16.1522 40.6504 17.6414 40.6504C18.5803 40.6504 19.5038 40.2461 20.3121 39.4815L25.0907 34.9594L32.0218 40.6953C32.0225 40.696 32.0235 40.6963 32.0241 40.697L32.0899 40.7515C32.096 40.7563 32.1024 40.7615 32.1084 40.7664C32.8788 41.3805 33.7197 41.7048 34.5412 41.7051H34.5415C36.1465 41.7051 37.4244 40.4841 37.7967 38.5948L43.8993 7.6246C44.1444 6.3815 43.9389 5.26916 43.3206 4.49218V4.49218ZM12.7104 25.2257L27.6155 17.3997L18.3346 27.5353C18.1825 27.7012 18.0747 27.9044 18.0217 28.1256L16.2321 35.5759L12.7104 25.2257ZM18.5655 37.5322C18.5038 37.5905 18.4417 37.6426 18.3796 37.6905L20.0399 30.7791L23.0601 33.2788L18.5655 37.5322ZM41.3725 7.09844L35.27 38.069C35.2112 38.3654 35.0236 39.0551 34.5412 39.0551C34.3028 39.0551 34.0034 38.9215 33.6969 38.679L25.843 32.1795C25.842 32.1785 25.8407 32.1775 25.8393 32.1768L21.1661 28.3091L34.5875 13.6517C35.0172 13.1825 35.0561 12.4638 34.6798 11.9484C34.3032 11.4329 33.6207 11.2707 33.0624 11.564L10.9879 23.1546L3.1572 20.8519L40.391 6.24383C40.7055 6.12032 40.9251 6.09444 41.0536 6.09444C41.1325 6.09444 41.2728 6.1041 41.3249 6.17C41.3933 6.25591 41.4806 6.54883 41.3725 7.09844V7.09844Z" fill="#2352DE"/>
</g>
<defs>
<clipPath id="clip0_26886_358">
<rect width="44" height="45.2222" fill="white"/>
</clipPath>
</defs>
</svg>
